<svg width="183" height="44" viewBox="0 0 183 44" fill="none" xmlns="http://www.w3.org/2000/svg">
<path d="M8.15113 33.3063C12.024 33.3063 14.6135 32.081 16.685 29.4076V32.638H21.4361V17.8673C21.4361 15.7954 21.3686 14.08 20.5129 12.3868C18.9142 9.20101 15.4691 7.90886 11.1459 7.90886C5.42658 7.90886 2.07156 10.6046 0.87816 14.6592L5.83188 16.1965C6.64249 13.7458 8.96174 12.8324 11.1459 12.8324C14.4559 12.8324 15.9195 14.1246 16.1221 16.8871C11.8664 17.5109 8.10609 18.0233 5.53916 18.8476C1.68877 20.162 0 22.5458 0 26.0435C0 30.0091 2.85965 33.3063 8.15113 33.3063ZM5.314 25.9767C5.314 24.4172 6.39481 23.5038 8.26371 22.8132C9.975 22.2339 12.1817 21.8997 16.0546 21.2982C16.0321 22.4122 15.9645 23.9494 15.5142 25.041C14.9738 26.7119 12.9247 29.0289 9.23194 29.0289C6.66501 29.0289 5.314 27.7367 5.314 25.9767Z" fill="url(#paint0_linear_419_24)"/>
<path d="M25.0466 32.638H30.6082V27.1352H25.0466V32.638Z" fill="url(#paint1_linear_419_24)"/>
<path d="M44.4206 33.3063C47.3028 33.3063 49.622 32.4152 51.3558 30.8557V32.638H56.1519V0.556961H50.6803V9.75797C49.0591 8.57721 47.0551 7.90886 44.6233 7.90886C37.7331 7.90886 33.3198 13.3003 33.3198 20.6076C33.3198 27.8258 37.6881 33.3063 44.4206 33.3063ZM39.0616 20.6076C39.0616 16.241 41.0656 12.721 45.4339 12.721C49.577 12.721 51.3558 15.9068 51.3558 20.6076C51.3558 25.2638 49.622 28.4942 45.2537 28.4942C41.0206 28.4942 39.0616 25.0187 39.0616 20.6076Z" fill="url(#paint2_linear_419_24)"/>
<path d="M70.3686 33.3063C75.0521 33.3063 79.2402 30.8111 81.1091 26.4446L75.7501 24.8405C74.6918 27.0684 72.7103 28.2714 70.0533 28.2714C66.3606 28.2714 64.1989 26.0658 63.7711 22.1003H81.3793C82.0098 13.4339 77.5965 7.90886 70.0533 7.90886C62.8929 7.90886 57.9617 12.9884 57.9617 20.8749C57.9617 28.1823 62.983 33.3063 70.3686 33.3063ZM63.9062 18.0456C64.5367 14.481 66.6308 12.6096 70.2785 12.6096C73.6335 12.6096 75.4124 14.2805 75.8852 18.0456H63.9062Z" fill="url(#paint3_linear_419_24)"/>
<path d="M92.6406 33.3063C98.9003 33.3063 102.683 30.3656 102.683 25.5311C102.683 21.7884 100.567 19.8947 94.7347 18.402C89.0379 16.9762 88.0922 16.4415 88.0922 15.038C88.0922 13.4339 89.8035 12.4537 92.3479 12.5651C94.9824 12.721 96.6712 13.9463 96.9639 15.9959L102.503 15.0157C101.895 10.6937 97.9321 7.90886 92.2578 7.90886C86.471 7.90886 82.6881 10.8051 82.6881 15.3053C82.6881 18.9144 84.8273 20.719 90.9293 22.3008C96.4235 23.7489 97.1215 24.1499 97.1215 25.7762C97.1215 27.5585 95.6129 28.6501 93.0234 28.6501C90.0512 28.6501 87.9796 27.202 87.4392 24.8182L81.9001 25.6648C82.7107 30.5215 86.6286 33.3063 92.6406 33.3063Z" fill="url(#paint4_linear_419_24)"/>
<path d="M104.913 4.92354H110.34V0H104.913V4.92354ZM104.913 32.638H110.34V8.57721H104.913V32.638Z" fill="url(#paint5_linear_419_24)"/>
<path d="M124.155 44C129.649 44 133.927 41.839 135.031 37.1828C135.278 36.1134 135.368 35.044 135.368 33.7965V8.57721H130.617V10.3149C128.906 8.77772 126.654 7.90886 123.885 7.90886C116.994 7.90886 112.581 13.3003 112.581 20.6076C112.581 27.8258 116.949 33.3063 123.682 33.3063C126.204 33.3063 128.298 32.6157 129.942 31.4127V33.7073C130.009 37.1382 127.555 38.8982 124.177 38.8982C122.263 38.8982 120.395 38.0516 119.494 36.3139L114.495 38.7646C116.386 42.0395 120.102 44 124.155 44ZM118.323 20.6076C118.323 16.241 120.327 12.721 124.695 12.721C128.838 12.721 130.617 15.9068 130.617 20.6076C130.617 25.2638 128.883 28.4942 124.515 28.4942C120.282 28.4942 118.323 25.0187 118.323 20.6076Z" fill="url(#paint6_linear_419_24)"/>
<path d="M155.35 21.0532V32.638H160.844V19.2041C160.844 16.3524 160.236 7.88658 151.275 7.88658C147.762 7.88658 145.105 9.17873 143.326 11.2506V8.57721H138.485V32.638H143.979V20.2734C143.979 14.4365 146.906 12.9438 149.676 12.9438C154.855 12.9438 155.35 18.0901 155.35 21.0532Z" fill="url(#paint7_linear_419_24)"/>
<path d="M172.957 33.3063C179.217 33.3063 183 30.3656 183 25.5311C183 21.7884 180.883 19.8947 175.052 18.402C169.355 16.9762 168.409 16.4415 168.409 15.038C168.409 13.4339 170.12 12.4537 172.665 12.5651C175.299 12.721 176.988 13.9463 177.281 15.9959L182.82 15.0157C182.212 10.6937 178.249 7.90886 172.575 7.90886C166.788 7.90886 163.005 10.8051 163.005 15.3053C163.005 18.9144 165.144 20.719 171.246 22.3008C176.74 23.7489 177.438 24.1499 177.438 25.7762C177.438 27.5585 175.93 28.6501 173.34 28.6501C170.368 28.6501 168.296 27.202 167.756 24.8182L162.217 25.6648C163.027 30.5215 166.945 33.3063 172.957 33.3063Z" fill="url(#paint8_linear_419_24)"/>
<defs>
<linearGradient id="paint0_linear_419_24" x1="-16.4679" y1="-7.47326" x2="63.6031" y2="118.946" gradientUnits="userSpaceOnUse">
<stop stop-color="#7435C0"/>
<stop offset="0.317708" stop-color="#9434AF"/>
<stop offset="0.682292" stop-color="#BD3598"/>
<stop offset="1" stop-color="#E63581"/>
</linearGradient>
<linearGradient id="paint1_linear_419_24" x1="-16.4679" y1="-7.47326" x2="63.6031" y2="118.946" gradientUnits="userSpaceOnUse">
<stop stop-color="#7435C0"/>
<stop offset="0.317708" stop-color="#9434AF"/>
<stop offset="0.682292" stop-color="#BD3598"/>
<stop offset="1" stop-color="#E63581"/>
</linearGradient>
<linearGradient id="paint2_linear_419_24" x1="-16.4679" y1="-7.47326" x2="63.6031" y2="118.946" gradientUnits="userSpaceOnUse">
<stop stop-color="#7435C0"/>
<stop offset="0.317708" stop-color="#9434AF"/>
<stop offset="0.682292" stop-color="#BD3598"/>
<stop offset="1" stop-color="#E63581"/>
</linearGradient>
<linearGradient id="paint3_linear_419_24" x1="-16.4679" y1="-7.47326" x2="63.6031" y2="118.946" gradientUnits="userSpaceOnUse">
<stop stop-color="#7435C0"/>
<stop offset="0.317708" stop-color="#9434AF"/>
<stop offset="0.682292" stop-color="#BD3598"/>
<stop offset="1" stop-color="#E63581"/>
</linearGradient>
<linearGradient id="paint4_linear_419_24" x1="-16.4679" y1="-7.47326" x2="63.6031" y2="118.946" gradientUnits="userSpaceOnUse">
<stop stop-color="#7435C0"/>
<stop offset="0.317708" stop-color="#9434AF"/>
<stop offset="0.682292" stop-color="#BD3598"/>
<stop offset="1" stop-color="#E63581"/>
</linearGradient>
<linearGradient id="paint5_linear_419_24" x1="-16.4679" y1="-7.47326" x2="63.6031" y2="118.946" gradientUnits="userSpaceOnUse">
<stop stop-color="#7435C0"/>
<stop offset="0.317708" stop-color="#9434AF"/>
<stop offset="0.682292" stop-color="#BD3598"/>
<stop offset="1" stop-color="#E63581"/>
</linearGradient>
<linearGradient id="paint6_linear_419_24" x1="-16.4679" y1="-7.47326" x2="63.6031" y2="118.946" gradientUnits="userSpaceOnUse">
<stop stop-color="#7435C0"/>
<stop offset="0.317708" stop-color="#9434AF"/>
<stop offset="0.682292" stop-color="#BD3598"/>
<stop offset="1" stop-color="#E63581"/>
</linearGradient>
<linearGradient id="paint7_linear_419_24" x1="-16.4679" y1="-7.47326" x2="63.6031" y2="118.946" gradientUnits="userSpaceOnUse">
<stop stop-color="#7435C0"/>
<stop offset="0.317708" stop-color="#9434AF"/>
<stop offset="0.682292" stop-color="#BD3598"/>
<stop offset="1" stop-color="#E63581"/>
</linearGradient>
<linearGradient id="paint8_linear_419_24" x1="-16.4679" y1="-7.47326" x2="63.6031" y2="118.946" gradientUnits="userSpaceOnUse">
<stop stop-color="#7435C0"/>
<stop offset="0.317708" stop-color="#9434AF"/>
<stop offset="0.682292" stop-color="#BD3598"/>
<stop offset="1" stop-color="#E63581"/>
</linearGradient>
</defs>
</svg>
